<svg version="1" xmlns="http://www.w3.org/2000/svg" width="346.667" height="346.667" viewBox="0 0 260.000000 260.000000"><path d="M171.5 14.4c-13.4 3.5-30.8 11.7-42.8 20.3l-4.8 3.4-3.5-3.1c-6.3-5.5-21.8-12.3-36.3-16-9.4-2.3-19.1-3.5-19.1-2.4 0 .5.9 6.7 1.9 13.9 1.1 7.1 2.2 17 2.6 21.9l.8 8.9-26.3-.4c-23.5-.4-26.4-.2-27.3 1.2-2.9 4.5 8.2 30.9 18.7 44.5l5.4 7.2-8.7 6.9C21.5 129.3 9 143.7 9 147.5c0 1.9 6.3 4.2 15.6 6 9.7 1.7 21.4 5.2 21.4 6.4 0 .4-1.6 2.3-3.6 4.2-5.2 4.9-11.1 12.8-18.8 25.1-8.2 13.3-8.3 13.4-6 16 1.9 2 2.4 2 22.7 1.4 17.4-.6 20.7-.5 20.7.6 0 .8-1.5 6.9-3.3 13.6-3.8 13.9-4.2 13.2 6.3 13.2 8 0 15.6-2.5 21.9-7.1l4.2-3 4.1 3.5c3.8 3.3 11.7 6.5 19.4 8.1 3.2.6 4.4 3 4.4 9 0 1.3.7 2.6 1.6 2.9 3 1.2 23.9.7 25.2-.6.7-.7 1.2-3.6 1.2-6.4 0-5.2.1-5.3 3.8-6.5 2-.6 7.5-3.1 12.2-5.4l8.5-4.3 2.7 2.3c4.6 4 21.6 9.5 29 9.5 2.1 0 5.4-.6 7.2-1.4 4.3-1.8 5-5.1 4.5-22l-.4-12.1 10.7-6.5c5.9-3.6 12.5-8.2 14.6-10.2 4.9-4.9 9.8-13 11.4-19.1 1.5-5.8 1.4-6-8.5-7.6-9.6-1.6-18.4-4.1-19.7-5.6-.8-.9 1.4-3.7 8.2-10.6 14-14.2 19.8-27.2 19.8-44.6 0-6.9-.3-8.5-1.7-9-.9-.4-6.4 1-12.2 3-5.8 2.1-10.9 3.7-11.3 3.7-.4 0 1.2-3.9 3.4-8.8 6-12.9 8.4-19.9 9.8-28 1.2-7.5.7-14.2-1.1-14.2-.6 0-7 2.5-14.3 5.6-14.6 6.2-24.6 9.1-34.8 10.1-8.3.7-8 2.9-2.9-24.7 2.7-14.4 3.5-20.7 2.7-21.2-1.9-1.3-6.8-.8-16.1 1.6zm-22.3 59.7c7.6 2.5 12.1 5.4 18.2 11.5 12.8 13 21.6 36.2 21.6 57.1 0 24.2-9.4 59.4-18.6 70.2l-2.9 3.3-5.3-3.3c-4.2-2.6-5.5-3-6.5-2-.9 1-.4 2 2.8 4.6 3.9 3.3 3.9 3.5 2 4.9-1.1.8-2.4 1.1-3 .7-.5-.4-2.9-2.2-5.3-4.1-3.9-2.9-4.5-3.1-5.9-1.8-1.3 1.4-1 1.9 3.2 4.9l4.7 3.3-3.1 1.5c-2.9 1.4-3.1 1.3-7.6-2.8-4.3-3.9-6.5-4.6-6.5-1.8 0 .7.9 2.3 2 3.7 1.1 1.4 2 2.9 2 3.4s-7 .7-15.7.4c-18.7-.5-22.5-1.8-30.3-9.8-5.5-5.7-12.1-18.2-14.5-27.3-5.4-21.6-4.2-60.2 2.6-82.2C87.9 92.7 96.2 81 105.9 76c10.5-5.3 30.6-6.2 43.3-1.9zM69.6 179.7c.6 5.8.5 6.3-1.2 6.3-7.2 0-8.7-9.3-2.5-16.3 1.5-1.8 1.6-1.7 2.3 1 .4 1.5 1.1 5.6 1.4 9zm130.9-10.5c3.4 1.6 4.2 5 1.8 9-1.8 3-7.9 7.6-8.8 6.6-.3-.3.2-2.7 1-5.4s1.5-6.4 1.5-8.2c0-3.5.6-3.8 4.5-2zM139 239.5v3.6l-7.2-.3c-7.5-.3-8.6-.9-8.7-5.1-.1-1.5.9-1.7 7.9-1.7h8v3.5z"/><path d="M117.5 88.6C101.3 90.9 92.7 94 91 98.1c-1.2 2.8-.7 9.4.8 10.3.4.2 4.4-.6 8.9-1.9 17.2-5 49.2-5.3 64.2-.6 4.5 1.4 6.3 1.6 6.6.8 1-3.3 1.4-8.3.7-9.4-1.2-1.9-9.5-5.3-17-6.9-6.6-1.4-31.8-2.7-37.7-1.8zM102.5 111.5c-.5.2-2.2.6-3.7.9-3.7.8-8.5 5.1-10.9 9.9-3.2 6.1-2.4 16.1 1.6 21.9 1.7 2.3 4.4 5 6.1 6 6.9 4 17.4 3.2 23.5-1.9 9.3-7.8 9.1-25.4-.3-32.6-4.2-3.2-12.7-5.4-16.3-4.2zm11.5 6.3c5.1 2.5 8.3 9.1 7.7 16-.6 8.8-6.6 14.2-15.7 14.2-10.1 0-16.6-7.4-15.6-17.8.6-6.2 2.4-9.5 6.9-12.2 4.1-2.5 12-2.6 16.7-.2z"/><path d="M102 131.1c-.9 1.6-.8 2.6.5 4.5 2.6 3.9 7.5 2.6 7.5-2.1 0-4.5-6-6.3-8-2.4zM143 113.5c-7.9 3.6-12.3 10.7-12.4 20 0 15.1 12.2 25.6 26 22.5 12.7-2.9 18.1-10.5 17.2-24.2-.6-8.3-4-13.9-10.3-17.2-5.2-2.7-15.7-3.2-20.5-1.1zm18.2 5.1c9.4 4.8 11.4 20.6 3.5 28.1-5.9 5.6-14.9 6.6-21.9 2.5-3.7-2.2-7.8-10.4-7.8-15.6.1-5.3 3.1-12 6.4-14.2 5.4-3.5 13.8-3.8 19.8-.8z"/><path d="M150 132c-2.5 2.5-2.5 3.5 0 6 2.4 2.4 3 2.4 5.4.7 2.5-1.8 1.8-6.7-1.2-7.8-1.7-.6-2.7-.4-4.2 1.1zM87.7 154.4c-1.3 3.2 7.8 7.7 15.7 7.8 7.4.2 11.6-1 11.6-3.1 0-1.6-1-1.8-8.7-1.7-7.5.1-9.4-.2-12.6-2.2-4.5-2.6-5.3-2.7-6-.8zM166 157.7c-5.8 3.1-7.1 3.4-12.2 3-5.2-.5-5.8-.3-5.8 1.3 0 4.7 13.3 4.4 21.6-.5 5-2.9 5.6-3.7 4.8-5.9-.8-2-.5-2-8.4 2.1zM121.2 170.7c.4 11.9 2.1 17.1 6.4 19.3 3.6 2 7.5.3 9.7-4.2 1.9-3.9 3.4-18.8 2.3-23.2-.4-1.7-1.3-2.6-2.6-2.6-1.8 0-2 .7-2 8.2-.1 12.8-1.9 18.5-5.6 17.1-2.1-.8-3.6-6.4-4.1-16.1-.5-8.3-.8-9.2-2.5-9.2-1.9 0-2 .6-1.6 10.7zM159.2 186.2c-1.6 1.6-1.5 2.8.2 2.8 2.6 0 5.7 5.1 5.1 8.2-.6 2.4-.3 2.8 1.5 2.8 1.1 0 2.3-.6 2.6-1.4 1-2.5-1.6-9.4-4.3-11.5-3-2.4-3.5-2.5-5.1-.9zM93.1 189.4c-1.2 1.3-2.5 4.2-2.8 6.5-.5 3.7-.3 4.1 1.6 4.1 1.7 0 2.1-.6 2.1-3 0-1.7.9-3.8 2.2-5 2-1.8 2-2.2.7-3.5-1.3-1.4-1.8-1.3-3.8.9zM147.5 197.8c-7.5 2.1-11.3 2.5-23 2.6-12.2 0-14.7-.3-19.4-2.1-5.8-2.4-7.1-2.2-7.1.7 0 2.2 6 4.4 17 6.1 17.3 2.7 44-2.3 44-8.1 0-2.4-.1-2.4-11.5.8z"/></svg>